<svg xmlns="http://www.w3.org/2000/svg" xmlns:xlink="http://www.w3.org/1999/xlink" xmlns:lucid="lucid" width="581" height="561.44"><g transform="translate(520.5003030849186 59.99999999999999)" lucid:page-tab-id="0_0"><path d="M-1000-500h2500v1500h-2500z" fill="#fff"/><path d="M-280 131.92a6 6 0 0 1 6-6h108a6 6 0 0 1 6 6v65.52a6 6 0 0 1-6 6h-108a6 6 0 0 1-6-6z" stroke="#3a414a" fill="#7cff89"/><path d="M-268 125.92v77.52m96-77.52v77.52" stroke="#3a414a" fill="none"/><use xlink:href="#a" transform="matrix(1,0,0,1,-260,130.92287860875905) translate(-6.882716049382715 38.44444444444444)"/><path d="M-435 72.23c0 22.66-19.03 41.02-42.5 41.02S-520 94.9-520 72.23c0-22.65 19.03-41.02 42.5-41.02S-435 49.6-435 72.24z" stroke="#3a414a" fill="#ffdda6"/><use xlink:href="#b" transform="matrix(1,0,0,1,-515,36.214189125688605) translate(14.074074074074076 40.59027777777778)"/><path d="M60 46.7c0 43.75-35.82 79.22-80 79.22s-80-35.47-80-79.23c0-43.76 35.82-79.24 80-79.24S60 2.94 60 46.7z" stroke="#3a414a" fill="#b8f5ed"/><use xlink:href="#c" transform="matrix(1,0,0,1,-95.00000000000006,-27.53629932693123) translate(46.080246913580254 78.30902777777777)"/><path d="M-440.53 166.53l-.9.3-5.86-17.02h1.02zm-13.1-38.06h-1l-6.02-17.53.9-.3z" stroke="#3a414a" stroke-width=".05" fill="#3a414a"/><path d="M-459.75 110.65l-.9.3-.16-.46.3-.12.56-.27z" fill="#3a414a"/><path stroke="#3a414a" stroke-width=".05" fill="#3a414a"/><path d="M-436.18 180.65l-9.02-11.98 8.77-3z" fill="#3a414a"/><path d="M-435.68 182.1l-10.3-13.67 10-3.44zm-8.75-13.2l7.75 10.3-.22-12.88z" stroke="#3a414a" stroke-width=".05" fill="#3a414a"/><use xlink:href="#d" transform="matrix(1,0,0,1,-459.3172909209385,128.4740647750963) translate(0 14.222222222222223)"/><path d="M-140 419.2c0 26.5-40.3 48-90 48s-90-21.5-90-48 40.3-48 90-48 90 21.5 90 48z" stroke="#3a414a" fill="#b8f5ed"/><use xlink:href="#e" transform="matrix(1,0,0,1,-315,376.21418912568856) translate(14.104938271604937 47.34027777777778)"/><path d="M-280.63-12.2l-27.52 4-29.56 5.53-24.75 5.7-19.6 5.4-15.12 4.86-11.6 4.25-8.9 3.7-6.92 3.23-5.42 2.82-4.32 2.47-3.47 2.2-2.84 1.94-2.32 1.76-1.92 1.57-1.6 1.44-1.36 1.32-.8.84-.7-.65.83-.88 1.37-1.34 1.63-1.47 1.96-1.6 2.35-1.76 2.86-1.97 3.5-2.2 4.36-2.5 5.47-2.84 6.94-3.24 8.95-3.73 11.62-4.28 15.16-4.88 19.64-5.4 24.78-5.72 29.6-5.55 27.67-4zm110.43-6.73l15.7 1.02 12.42 1.32 9.9 1.5 7.93 1.52 6.45 1.52 5.3 1.5 4.38 1.43 3.68 1.37 3.1 1.3.5.24-.42.87-.46-.22-3.08-1.3-3.64-1.36-4.35-1.44-5.24-1.48-6.4-1.5-7.9-1.54-9.86-1.47-12.38-1.33-15.66-1.02-19.73-.45-24.43.46-29.05 1.76-18.8 1.92v-.96l18.72-1.92 29.1-1.76 24.46-.46z" stroke="#3a414a" stroke-width=".05" fill="#3a414a"/><path d="M-448.64 40.83l-.32.35-.76-.6.4-.4z" fill="#3a414a"/><path stroke="#3a414a" stroke-width=".05" fill="#3a414a"/><path d="M-88.76 2.27l-14.48-3.92 5.07-7.76z" fill="#3a414a"/><path d="M-87.47 3.1L-104-1.35l5.8-8.86zm-15-5.04l12.42 3.37-8.08-10.04z" stroke="#3a414a" stroke-width=".05" fill="#3a414a"/><use xlink:href="#f" transform="matrix(1,0,0,1,-280.6298194087559,-24.48480194588983) translate(0 14.222222222222223)"/><path d="M-340 230.15c0 32.54-26.86 58.93-60 58.93s-60-26.4-60-58.93c0-32.55 26.86-58.94 60-58.94s60 26.4 60 58.95z" stroke="#3a414a" fill="#b8f5ed"/><use xlink:href="#g" transform="matrix(1,0,0,1,-455,176.2141891256886) translate(19.845679012345677 58.27777777777778)"/><path d="M-302.55 31.8l-7.88 3.9-7.9 4.36-7.4 4.48-6.9 4.58-6.44 4.67-5.98 4.73-5.56 4.8-5.17 4.84-4.78 4.88-4.42 4.9-4.1 4.95-3.77 4.98-3.5 5.02-3.2 5.04-2.93 5.1-2.7 5.13-2.43 5.2-2.2 5.26-2 5.33-1.75 5.4-1.54 5.5-1.3 5.63-1.1 5.72-.87 5.88-.63 6.02-.4 6.2-.12 5.9-.94-.02.12-5.92.4-6.24.63-6.06.86-5.9 1.1-5.8 1.33-5.64 1.54-5.55 1.77-5.46 2-5.36 2.23-5.3 2.46-5.23 2.7-5.17 2.96-5.13 3.22-5.08 3.5-5.05 3.8-5 4.13-4.98 4.46-4.95 4.8-4.9 5.2-4.88 5.58-4.82 6-4.76 6.48-4.7 6.93-4.6 7.43-4.5 7.95-4.37 8.32-4.13zm121.52-25.82l11.97.5 11.75.98 11.46 1.45 11.13 1.9 10.74 2.28 10.33 2.65 1.72.52-.28.9-1.7-.5-10.3-2.65-10.7-2.27-11.1-1.88-11.43-1.44-11.72-.97-11.93-.5h-12.05l-12.1.5-12.02 1-11.9 1.5-11.64 1.98-11.33 2.42-10.93 2.8-10.5 3.18-.26.1v-1.02l10.52-3.17 10.97-2.8 11.36-2.42 11.7-1.98 11.92-1.5 12.07-1 12.13-.52z" stroke="#3a414a" stroke-width=".05" fill="#3a414a"/><path d="M-399.5 170.2l-.02.53-.48-.02-.48.03.02-.54z" fill="#3a414a"/><path stroke="#3a414a" stroke-width=".05" fill="#3a414a"/><path d="M-98 21.22l-15 .05 2.84-8.83z" fill="#3a414a"/><path d="M-96.53 21.7l-17.1.05 3.22-10.07zm-15.8-.9l12.87-.05-10.44-7.54z" stroke="#3a414a" stroke-width=".05" fill="#3a414a"/><use xlink:href="#h" transform="matrix(1,0,0,1,-302.5483775610826,14.436717628070664) translate(0 14.222222222222223)"/><path d="M-315.96 380.1l-.8.5-19.47-30.2h1.13zm-32.88-51.05h-1.13L-377.7 286l.8-.53z" stroke="#3a414a" stroke-width=".05" fill="#3a414a"/><path d="M-376.9 285.48l-.8.52-.34-.52.9-.34z" fill="#3a414a"/><path stroke="#3a414a" stroke-width=".05" fill="#3a414a"/><path d="M-308.37 392.77L-320 383.3l7.8-5.03z" fill="#3a414a"/><path d="M-307.53 394.06l-13.27-10.82 8.9-5.73zm-11.65-10.73l9.98 8.15-3.3-12.46z" stroke="#3a414a" stroke-width=".05" fill="#3a414a"/><use xlink:href="#i" transform="matrix(1,0,0,1,-356.5849405181478,329.05357266294) translate(0 14.222222222222223)"/><path d="M-405.42 305.2l-.8.98-1.63 1.5-1.8 1.3-2.05 1.1-2.32.86-2.64.63h-.03v-.97l2.4-.57 2.2-.83 1.94-1.03 1.7-1.23 1.53-1.4.78-.94zm-34.43-29.78l-2.34 3.1-1.7 3-1.1 2.67-.63 2.42-.3 2.27v2.16l.3 2.1.54 2.1.87 2.1.82 1.45h-1.1l-.58-1.02-.9-2.22-.6-2.2-.3-2.24v-2.3l.32-2.38.67-2.55 1.14-2.8 1.77-3.1 2.4-3.16z" stroke="#3a414a" stroke-width=".05" fill="#3a414a"/><path d="M-439.57 275.04l-.3.38-.75-.57.33-.43z" fill="#3a414a"/><path stroke="#3a414a" stroke-width=".05" fill="#3a414a"/><path d="M-401.3 306.08l-8.87-2.7 8.58-12.3z" fill="#3a414a"/><path d="M-400.8 306.72l-10.13-3.08 9.8-14.03zm-8.6-3.6l7.6 2.3-.23-12.87z" stroke="#3a414a" stroke-width=".05" fill="#3a414a"/><use xlink:href="#j" transform="matrix(1,0,0,1,-444.79105274187253,298.80914739687665) translate(0 14.222222222222223)"/><path d="M-2-58.86l-.55.1-2.44.77-2.2.98-2 1.16-1.82 1.34-1.65 1.52-1.5 1.73-1.35 1.96-1.22 2.25-1.06 2.6-.87 3.1-.6 3.73-.23 4.1-.95-.04.22-4.17.64-3.82.9-3.2 1.1-2.7 1.27-2.35 1.4-2.05 1.58-1.8 1.73-1.6 1.9-1.4 2.1-1.2 2.3-1.03 2.53-.8.8-.15zm29.82 10.24l1.33 2.13 1.04 2.2.76 2.22.52 2.3.28 2.38v2.5l-.07.72-.96-.1.08-.67v-2.4l-.27-2.28-.5-2.2-.75-2.12-1-2.08L27.1-48h.3v-1.15z" stroke="#3a414a" stroke-width=".05" fill="#3a414a"/><path d="M-19.5-33.52l-.02.5-.47-.02h-.48l.03-.54z" fill="#3a414a"/><path stroke="#3a414a" stroke-width=".05" fill="#3a414a"/><path d="M35.43-32.27L26-20.6l.77-15z" fill="#3a414a"/><path d="M36.2-32.48l-10.75 13.3.88-17.08zm-9.65 10.44l8.1-10.02-7.44-2.85z" stroke="#3a414a" stroke-width=".05" fill="#3a414a"/><use xlink:href="#k" transform="matrix(1,0,0,1,-2.002691421840291,-69.32767175697593) translate(0 14.222222222222223)"/><path d="M4.86 321.96L.4 330.28l-4.63 7.88-4.8 7.44-4.96 7-5.06 6.55-5.16 6.13-5.23 5.7-5.3 5.32-5.34 4.93-5.37 4.57-5.42 4.2-5.43 3.9-5.48 3.57-5.5 3.27-5.55 2.98-5.57 2.7-5.6 2.44-5.66 2.18-5.7 1.93-5.77 1.7-5.84 1.43-5.9 1.2-6.02.97-4.17.5-.1-.95 4.15-.5 5.97-.95 5.88-1.2 5.8-1.43 5.73-1.67 5.67-1.92 5.6-2.17 5.6-2.42 5.52-2.7 5.5-2.95 5.47-3.24 5.43-3.55 5.42-3.85 5.38-4.2 5.35-4.53 5.32-4.9 5.26-5.3 5.2-5.67 5.14-6.1 5.04-6.52 4.93-6.96 4.8-7.4 4.6-7.86 4.44-8.27.34-.7H5.4zm11.8-194.86l2.96 8.2 2.7 8.5 2.36 8.82 2.06 9.12 1.7 9.4 1.35 9.7.95 9.97.55 10.2.13 10.36-.32 10.5-.75 10.62-1.2 10.63-1.67 10.62-2.1 10.5-2.53 10.35-2.92 10.13-3.3 9.85-1.9 4.96h-1l2-5.27 3.3-9.8 2.9-10.1 2.52-10.3 2.1-10.48L28.2 243l1.2-10.6.76-10.58.3-10.47-.1-10.33-.56-10.14-.95-9.92-1.34-9.66-1.7-9.37-2.04-9.08-2.37-8.78-2.67-8.47-2.96-8.16-3.03-7.4.88-.35z" stroke="#3a414a" stroke-width=".05" fill="#3a414a"/><path d="M13.62 119.7l-.88.36-.2-.47.88-.4z" fill="#3a414a"/><path stroke="#3a414a" stroke-width=".05" fill="#3a414a"/><path d="M-123.38 422.94l-14.5-3.83 13.98-5.4z" fill="#3a414a"/><path d="M-122.87 423.57l-16.55-4.37 15.96-6.2zm-13.48-4.55l12.46 3.3-.44-7.95z" stroke="#3a414a" stroke-width=".05" fill="#3a414a"/><use xlink:href="#l" transform="matrix(1,0,0,1,-4.5224983127354825,299.5056311180612) translate(0 14.222222222222223)"/><path d="M-176.46 475.52l-.04 1.15-.43 3.2-.68 2.9-.92 2.65-1.1 2.45-1.32 2.25-1.5 2.07-1.68 1.88-1.85 1.72-2.03 1.53-2.18 1.34-.86.42v-1.07l.4-.2 2.1-1.28 1.95-1.48 1.8-1.65 1.62-1.83 1.44-2 1.26-2.17 1.08-2.36.88-2.57.66-2.8.4-3.1.05-1.1zm-52.8-2.53l.65 4.43.93 3.78 1.17 3.25 1.33 2.82 1.5 2.46 1.6 2.16 1.73 1.9 1.2 1.07v1.28l-1.87-1.7-1.8-1.95-1.67-2.24-1.53-2.54-1.38-2.9-1.2-3.33-.97-3.88-.67-4.54-.23-4.87.95-.03z" stroke="#3a414a" stroke-width=".05" fill="#3a414a"/><path d="M-230 467.7h.47l.03.48-.95.05-.03-.55z" fill="#3a414a"/><path stroke="#3a414a" stroke-width=".05" fill="#3a414a"/><path d="M-172.4 474.43l-9.18 1.35 2.5-14.8z" fill="#3a414a"/><path d="M-171.7 474.8l-10.46 1.54 2.86-16.87zm-9.3.4l7.87-1.15-5.72-11.54z" stroke="#3a414a" stroke-width=".05" fill="#3a414a"/><use xlink:href="#m" transform="matrix(1,0,0,1,-219.13738747867006,490.671597924028) translate(0 14.222222222222223)"/><path d="M-276 73l-2.87 1.2-7.94 3.74-7.38 3.85-6.9 3.97-6.47 4.1-6.1 4.25-5.8 4.4-5.52 4.56-5.28 4.75-5.05 4.95-4.86 5.18-4.7 5.43-4.5 5.7-4.4 6.02-4.23 6.4-4.1 6.78-4 7.26-2.65 5.36-.85-.42 2.66-5.38 4-7.3 4.15-6.82 4.27-6.42 4.4-6.06 4.55-5.74 4.7-5.46 4.9-5.2 5.08-4.98 5.3-4.78 5.55-4.58 5.83-4.43 6.15-4.27 6.5-4.13 6.93-4 7.4-3.86 7.98-3.77 3.27-1.37zm175-25.82l-42.3.8-28.18 1.74-21.64 2.26-17.72 2.6-15.03 2.87-13.07 3.06-8.3 2.32v-1l8.07-2.23 13.1-3.08 15.07-2.87 17.76-2.6 21.68-2.27 28.22-1.75 42.33-.8z" stroke="#3a414a" stroke-width=".05" fill="#3a414a"/><path d="M-100.5 46.7v.47h-.5l-.03-.94h.55z" fill="#3a414a"/><path stroke="#3a414a" stroke-width=".05" fill="#3a414a"/><path d="M-365.14 163.04l-10.02 11.16 1.55-14.92z" fill="#3a414a"/><path d="M-364.35 162.87l-11.43 12.73 1.76-17.02zm-10.2 9.92l8.62-9.6-7.28-3.22z" stroke="#3a414a" stroke-width=".05" fill="#3a414a"/><use xlink:href="#n" transform="matrix(1,0,0,1,-275.9935499345374,56.20017149180612) translate(0 14.222222222222223)"/><path d="M-25.7 305.66l-4.27 8-4.5 7.7-4.77 7.36-5 7.1-5.26 6.82-5.53 6.58-5.8 6.35-6.08 6.12-6.4 5.9-6.7 5.7-7.07 5.52-7.43 5.3-7.84 5.14-8.28 4.93-8.77 4.73-9.3 4.53-9.88 4.3-2.48 1-.35-.87 2.45-1 9.86-4.3 9.27-4.52 8.74-4.7 8.26-4.93 7.8-5.1 7.4-5.3 7.03-5.48 6.67-5.68 6.36-5.9 6.06-6.1 5.76-6.3 5.5-6.55 5.23-6.8 4.98-7.06 4.73-7.35 4.5-7.65 4.24-7.97.5-1.07h1.07zM-1.77 141.7l1.56 16.03.85 15.22.2 14.44-.38 13.7-.9 12.98-1.4 12.33-1.8 11.7-2.2 11.12-2.57 10.56-2.9 10.06-3.18 9.58-1.3 3.4h-1l1.4-3.72 3.18-9.54 2.88-10.02L-6.77 249l2.2-11.06 1.8-11.66 1.38-12.3.92-12.94.38-13.66-.2-14.4-.84-15.18-1.57-15.97-.1-.6.95-.12z" stroke="#3a414a" stroke-width=".05" fill="#3a414a"/><path d="M2.2 140.04l-9.18 1.3 2.6-14.78z" fill="#3a414a"/><path d="M2.92 140.42l-10.48 1.47 2.97-16.87zm-9.32.35l7.9-1.1-5.66-11.6z" stroke="#3a414a" stroke-width=".05" fill="#3a414a"/><path d="M-141.05 408.77l-.47.2-.27-.68-.1-.2.5-.2z" fill="#3a414a"/><path stroke="#3a414a" stroke-width=".05" fill="#3a414a"/><use xlink:href="#o" transform="matrix(1,0,0,1,-34.964838437276,282.82975640125267) translate(0 14.222222222222223)"/><path d="M-289.18 381.9l-.8.54-28.73-42.56h1.14zm-42.78-63.36h-1.15l-19.5-28.87.8-.53z" stroke="#3a414a" stroke-width=".05" fill="#3a414a"/><path d="M-288.86 382.4l-.87.4-.24-.37.78-.53z" fill="#3a414a"/><path stroke="#3a414a" stroke-width=".05" fill="#3a414a"/><path d="M-348.65 286.4l-7.68 5.2-4.14-14.43z" fill="#3a414a"/><path d="M-347.84 286.43l-8.77 5.92-4.73-16.45zm-8.2 4.4l6.6-4.46-10.17-7.93z" stroke="#3a414a" stroke-width=".05" fill="#3a414a"/><use xlink:href="#p" transform="matrix(1,0,0,1,-339.38452586684986,318.54250339607387) translate(0 14.222222222222223)"/><path d="M-340.18 181.62l-3.95 2.66-9.3 7.25-.58-.75 9.3-7.27 4.52-3.02zm43.38-15.66l-5.54.64-6.58 1.22-2.5.65v-1l2.3-.58 6.63-1.24 5.6-.64z" stroke="#3a414a" stroke-width=".05" fill="#3a414a"/><path d="M-353.42 191.52l-.4.3-.6-.72.42-.33z" fill="#3a414a"/><path stroke="#3a414a" stroke-width=".05" fill="#3a414a"/><path d="M-282.12 164.76l-14 5.34-.47-9.26z" fill="#3a414a"/><path d="M-280.58 164.7l-16 6.07-.52-10.56zm-15.1 4.72l12.03-4.58-12.44-3.37z" stroke="#3a414a" stroke-width=".05" fill="#3a414a"/><use xlink:href="#q" transform="matrix(1,0,0,1,-340.18204830715524,162.25465268841182) translate(0 14.222222222222223)"/><path d="M-171.6 73.63l-5.27 1.6-4.82 1.66-4.05 1.6-3.5 1.55-3.02 1.5-2.68 1.47-2.38 1.45-2.14 1.42-1.93 1.4-1.76 1.38-1.6 1.4-1.48 1.37-1.35 1.38-1.25 1.4-1.16 1.4-1.1 1.43-1 1.44-.93 1.47-.87 1.5-.8 1.56-.76 1.6-.7 1.64-.63 1.7-.45 1.44-.9-.3.47-1.44.65-1.74.7-1.7.77-1.6.83-1.6.88-1.54.96-1.5 1.04-1.48 1.1-1.46 1.2-1.43 1.27-1.4 1.4-1.43 1.5-1.4 1.64-1.42 1.8-1.42 1.95-1.42 2.16-1.44 2.42-1.46 2.7-1.5 3.08-1.5 3.52-1.58 4.1-1.62 4.85-1.68 5.57-1.68zm71.93-12.45l-34.15 4.96-8.37 1.4v-.98l8.24-1.36 34.16-4.96z" stroke="#3a414a" stroke-width=".05" fill="#3a414a"/><path d="M-213.18 110.35l-6.6 13.47-2.57-14.78z" fill="#3a414a"/><path d="M-212.46 109.97l-7.53 15.37-2.94-16.86zm-7.1 12.33l5.67-11.57-7.87-1.12z" stroke="#3a414a" stroke-width=".05" fill="#3a414a"/><path d="M-99.16 61.1l-.52.1-.13-.95.48-.08z" fill="#3a414a"/><path stroke="#3a414a" stroke-width=".05" fill="#3a414a"/><use xlink:href="#r" transform="matrix(1,0,0,1,-171.59923630006188,58.98447217562111) translate(0 14.222222222222223)"/><path d="M-219.53 370.52h-.94v-60.64h.94zm0-81.97h-.94v-68.23h.94z" stroke="#3a414a" stroke-width=".05" fill="#3a414a"/><path d="M-219.53 371.06l-.94-.08v-.47h.94z" fill="#3a414a"/><path stroke="#3a414a" stroke-width=".05" fill="#3a414a"/><path d="M-215.37 219.82h-9.26l4.63-14.26z" fill="#3a414a"/><path d="M-214.7 220.3h-10.6l5.3-16.28zm-9.28-.95h7.96L-220 207.1z" stroke="#3a414a" stroke-width=".05" fill="#3a414a"/><use xlink:href="#s" transform="matrix(1,0,0,1,-234.3777777777778,288.5475224590219) translate(0 14.222222222222223)"/><path d="M-104.7 214.96a7.5 7.5 0 0 1 9.4 0l50.6 40.5a4.8 4.8 0 0 1 0 7.5l-50.6 40.48a7.5 7.5 0 0 1-9.4 0l-50.6-40.5a4.8 4.8 0 0 1 0-7.5z" stroke="#3a414a" fill="#dfe3e8"/><use xlink:href="#t" transform="matrix(1,0,0,1,-155,216.21418912568856) translate(36.517345679012344 47.34027777777778)"/><path d="M-93.2 194l-.9-.3 6.9-20.66h1zm27.25-81.45l-13.1 39.15h-1l13.2-39.45z" stroke="#3a414a" stroke-width=".05" fill="#3a414a"/><path d="M-65.84 112.2l-.12.36-.9-.3.2-.6z" fill="#3a414a"/><path stroke="#3a414a" stroke-width=".05" fill="#3a414a"/><path d="M-84.02 196.57l-.3.9-9.04-3.02-6.2 18.52-.9-.3 6.2-18.52-9.03-3.02.3-.9z" stroke="#3a414a" stroke-width=".05" fill="#3a414a"/><use xlink:href="#u" transform="matrix(1,0,0,1,-97.50077876590544,151.70416545562105) translate(0 14.222222222222223)"/><path d="M-177.3 255.58l-.14.93-57.07-9.1v-.96zm-85.3-13.63v.96l-76.48-12.2.15-.94z" stroke="#3a414a" stroke-width=".05" fill="#3a414a"/><path d="M-338.92 229.76l-.15.94-.45-.08.02-.47-.02-.5z" fill="#3a414a"/><path stroke="#3a414a" stroke-width=".05" fill="#3a414a"/><path d="M-175.32 246.25l-1.5 9.4 19.28 3.08-.15.94-19.27-3.08-1.5 9.4-.94-.15 3.14-19.75z" stroke="#3a414a" stroke-width=".05" fill="#3a414a"/><use xlink:href="#v" transform="matrix(1,0,0,1,-262.60810001244647,234.0067003947122) translate(0 14.222222222222223)"/><path d="M-189.5 375.6l-.73-.6 25.08-31.3h1.22zm55.54-69.32l-12.9 16.1h-1.2l13.36-16.7z" stroke="#3a414a" stroke-width=".05" fill="#3a414a"/><path d="M-189.48 375.6l-.18.22-1.02-.26.46-.57z" fill="#3a414a"/><path stroke="#3a414a" stroke-width=".05" fill="#3a414a"/><path d="M-121.46 290.67l-12.2 15.24 7.43 5.96-.6.74-15.6-12.5.6-.74 7.43 5.95 12.2-15.23z" stroke="#3a414a" stroke-width=".05" fill="#3a414a"/><use xlink:href="#w" transform="matrix(1,0,0,1,-170.0476999762603,322.36465116507253) translate(0 14.222222222222223)"/><path d="M-476.42 324.45l5.37 8.3 5.6 7.9 5.77 7.47 5.94 7.05 6.07 6.63 6.17 6.2 6.27 5.78 6.33 5.37 6.4 4.97 6.42 4.6 6.46 4.2 6.5 3.85 6.5 3.5 6.55 3.2 6.56 2.84 6.57 2.55 6.62 2.24 6.64 1.94 6.7 1.65 6.73 1.36 6.8 1.1 6.63.77-.1.94-6.66-.78-6.83-1.1-6.78-1.38-6.73-1.67-6.7-1.95-6.65-2.25-6.62-2.56-6.6-2.88-6.57-3.2-6.56-3.52-6.52-3.87-6.5-4.24-6.46-4.62-6.42-5-6.36-5.4-6.3-5.8-6.2-6.23-6.1-6.65-5.96-7.1-5.8-7.5-5.62-7.92-5.38-8.33-2.45-4.15h1.1zm-19.86-214.38l-3 7.27-2.86 7.95-2.58 8.16-2.27 8.4-1.93 8.64-1.6 8.88-1.27 9.1-.9 9.3-.5 9.54-.13 9.72.3 9.9.7 10.03 1.17 10.14 1.6 10.23 2.05 10.24 2.48 10.22 2.93 10.13 3.36 10.02 3.76 9.85 4.14 9.6 1 2.06h-1.07l-.8-1.65-4.16-9.65-3.77-9.88-3.37-10.05-2.94-10.2-2.5-10.25-2.06-10.28-1.6-10.26-1.16-10.18-.73-10.08-.28-9.93.12-9.76.5-9.58.9-9.36 1.28-9.14 1.62-8.9 1.95-8.68 2.27-8.44 2.6-8.22 2.88-7.98 3-7.3z" stroke="#3a414a" stroke-width=".05" fill="#3a414a"/><path d="M-496.1 109.6l-.2.48-.87-.36.2-.5z" fill="#3a414a"/><path stroke="#3a414a" stroke-width=".05" fill="#3a414a"/><path d="M-322.12 419.12l-14.47 3.94.46-9.26z" fill="#3a414a"/><path d="M-320.58 419.2l-16.52 4.5.52-10.58zm-15.5 3.23l12.43-3.38-12.05-4.58z" stroke="#3a414a" stroke-width=".05" fill="#3a414a"/><use xlink:href="#x" transform="matrix(1,0,0,1,-493.9424722527177,299.46421948241954) translate(0 14.222222222222223)"/><defs><path fill="#3a414a" d="M30-248c87 1 191-15 191 75 0 78-77 80-158 76V0H30v-248zm33 125c57 0 124 11 124-50 0-59-68-47-124-48v98" id="y"/><path fill="#3a414a" d="M84 4C-5 8 30-112 23-190h32v120c0 31 7 50 39 49 72-2 45-101 50-169h31l1 190h-30c-1-10 1-25-2-33-11 22-28 36-60 37" id="z"/><path fill="#3a414a" d="M114-163C36-179 61-72 57 0H25l-1-190h30c1 12-1 29 2 39 6-27 23-49 58-41v29" id="A"/><path fill="#3a414a" d="M96-169c-40 0-48 33-48 73s9 75 48 75c24 0 41-14 43-38l32 2c-6 37-31 61-74 61-59 0-76-41-82-99-10-93 101-131 147-64 4 7 5 14 7 22l-32 3c-4-21-16-35-41-35" id="B"/><path fill="#3a414a" d="M106-169C34-169 62-67 57 0H25v-261h32l-1 103c12-21 28-36 61-36 89 0 53 116 60 194h-32v-121c2-32-8-49-39-48" id="C"/><path fill="#3a414a" d="M141-36C126-15 110 5 73 4 37 3 15-17 15-53c-1-64 63-63 125-63 3-35-9-54-41-54-24 1-41 7-42 31l-33-3c5-37 33-52 76-52 45 0 72 20 72 64v82c-1 20 7 32 28 27v20c-31 9-61-2-59-35zM48-53c0 20 12 33 32 33 41-3 63-29 60-74-43 2-92-5-92 41" id="D"/><path fill="#3a414a" d="M135-143c-3-34-86-38-87 0 15 53 115 12 119 90S17 21 10-45l28-5c4 36 97 45 98 0-10-56-113-15-118-90-4-57 82-63 122-42 12 7 21 19 24 35" id="E"/><path fill="#3a414a" d="M100-194c63 0 86 42 84 106H49c0 40 14 67 53 68 26 1 43-12 49-29l28 8c-11 28-37 45-77 45C44 4 14-33 15-96c1-61 26-98 85-98zm52 81c6-60-76-77-97-28-3 7-6 17-6 28h103" id="F"/><g id="a"><use transform="matrix(0.06172839506172839,0,0,0.06172839506172839,0,0)" xlink:href="#y"/><use transform="matrix(0.06172839506172839,0,0,0.06172839506172839,14.814814814814813,0)" xlink:href="#z"/><use transform="matrix(0.06172839506172839,0,0,0.06172839506172839,27.160493827160494,0)" xlink:href="#A"/><use transform="matrix(0.06172839506172839,0,0,0.06172839506172839,34.50617283950617,0)" xlink:href="#B"/><use transform="matrix(0.06172839506172839,0,0,0.06172839506172839,45.61728395061728,0)" xlink:href="#C"/><use transform="matrix(0.06172839506172839,0,0,0.06172839506172839,57.962962962962955,0)" xlink:href="#D"/><use transform="matrix(0.06172839506172839,0,0,0.06172839506172839,70.30864197530863,0)" xlink:href="#E"/><use transform="matrix(0.06172839506172839,0,0,0.06172839506172839,81.41975308641975,0)" xlink:href="#F"/></g><path fill="#3a414a" d="M185-189c-5-48-123-54-124 2 14 75 158 14 163 119 3 78-121 87-175 55-17-10-28-26-33-46l33-7c5 56 141 63 141-1 0-78-155-14-162-118-5-82 145-84 179-34 5 7 8 16 11 25" id="G"/><path fill="#3a414a" d="M59-47c-2 24 18 29 38 22v24C64 9 27 4 27-40v-127H5v-23h24l9-43h21v43h35v23H59v120" id="H"/><g id="b"><use transform="matrix(0.06172839506172839,0,0,0.06172839506172839,0,0)" xlink:href="#G"/><use transform="matrix(0.06172839506172839,0,0,0.06172839506172839,14.814814814814813,0)" xlink:href="#H"/><use transform="matrix(0.06172839506172839,0,0,0.06172839506172839,20.98765432098765,0)" xlink:href="#D"/><use transform="matrix(0.06172839506172839,0,0,0.06172839506172839,33.33333333333333,0)" xlink:href="#A"/><use transform="matrix(0.06172839506172839,0,0,0.06172839506172839,40.679012345679006,0)" xlink:href="#H"/></g><path fill="#3a414a" d="M30-248c118-7 216 8 213 122C240-48 200 0 122 0H30v-248zM63-27c89 8 146-16 146-99s-60-101-146-95v194" id="I"/><path fill="#3a414a" d="M24-231v-30h32v30H24zM24 0v-190h32V0H24" id="J"/><g id="c"><use transform="matrix(0.06172839506172839,0,0,0.06172839506172839,0,0)" xlink:href="#I"/><use transform="matrix(0.06172839506172839,0,0,0.06172839506172839,15.987654320987653,0)" xlink:href="#J"/><use transform="matrix(0.06172839506172839,0,0,0.06172839506172839,20.864197530864196,0)" xlink:href="#A"/><use transform="matrix(0.06172839506172839,0,0,0.06172839506172839,28.209876543209873,0)" xlink:href="#F"/><use transform="matrix(0.06172839506172839,0,0,0.06172839506172839,40.55555555555555,0)" xlink:href="#B"/><use transform="matrix(0.06172839506172839,0,0,0.06172839506172839,51.66666666666666,0)" xlink:href="#H"/></g><path fill="#333" d="M135-194c53 0 70 44 70 98 0 56-19 98-73 100-31 1-45-17-59-34 3 33 2 69 2 105H25l-1-265h48c2 10 0 23 3 31 11-24 29-35 60-35zM114-30c33 0 39-31 40-66 0-38-9-64-40-64-56 0-55 130 0 130" id="K"/><path fill="#333" d="M137-138c1-29-70-34-71-4 15 46 118 7 119 86 1 83-164 76-172 9l43-7c4 19 20 25 44 25 33 8 57-30 24-41C81-84 22-81 20-136c-2-80 154-74 161-7" id="L"/><g id="d"><use transform="matrix(0.04938271604938272,0,0,0.04938271604938272,0,0)" xlink:href="#K"/><use transform="matrix(0.034567901234567905,0,0,0.034567901234567905,10.814814814814815,2.488888888888889)" xlink:href="#L"/></g><path fill="#3a414a" d="M205 0l-28-72H64L36 0H1l101-248h38L239 0h-34zm-38-99l-47-123c-12 45-31 82-46 123h93" id="M"/><path fill="#3a414a" d="M85-194c31 0 48 13 60 33l-1-100h32l1 261h-30c-2-10 0-23-3-31C134-8 116 4 85 4 32 4 16-35 15-94c0-66 23-100 70-100zm9 24c-40 0-46 34-46 75 0 40 6 74 45 74 42 0 51-32 51-76 0-42-9-74-50-73" id="N"/><path fill="#3a414a" d="M108 0H70L1-190h34L89-25l56-165h34" id="O"/><path fill="#3a414a" d="M210-169c-67 3-38 105-44 169h-31v-121c0-29-5-50-35-48C34-165 62-65 56 0H25l-1-190h30c1 10-1 24 2 32 10-44 99-50 107 0 11-21 27-35 58-36 85-2 47 119 55 194h-31v-121c0-29-5-49-35-48" id="P"/><path fill="#3a414a" d="M117-194c89-4 53 116 60 194h-32v-121c0-31-8-49-39-48C34-167 62-67 57 0H25l-1-190h30c1 10-1 24 2 32 11-22 29-35 61-36" id="Q"/><g id="e"><use transform="matrix(0.06172839506172839,0,0,0.06172839506172839,0,0)" xlink:href="#M"/><use transform="matrix(0.06172839506172839,0,0,0.06172839506172839,14.814814814814813,0)" xlink:href="#N"/><use transform="matrix(0.06172839506172839,0,0,0.06172839506172839,27.160493827160494,0)" xlink:href="#O"/><use transform="matrix(0.06172839506172839,0,0,0.06172839506172839,38.27160493827161,0)" xlink:href="#F"/><use transform="matrix(0.06172839506172839,0,0,0.06172839506172839,50.617283950617285,0)" xlink:href="#A"/><use transform="matrix(0.06172839506172839,0,0,0.06172839506172839,57.96296296296296,0)" xlink:href="#H"/><use transform="matrix(0.06172839506172839,0,0,0.06172839506172839,64.1358024691358,0)" xlink:href="#J"/><use transform="matrix(0.06172839506172839,0,0,0.06172839506172839,69.01234567901234,0)" xlink:href="#E"/><use transform="matrix(0.06172839506172839,0,0,0.06172839506172839,80.12345679012346,0)" xlink:href="#F"/><use transform="matrix(0.06172839506172839,0,0,0.06172839506172839,92.46913580246914,0)" xlink:href="#P"/><use transform="matrix(0.06172839506172839,0,0,0.06172839506172839,110.92592592592592,0)" xlink:href="#F"/><use transform="matrix(0.06172839506172839,0,0,0.06172839506172839,123.27160493827161,0)" xlink:href="#Q"/><use transform="matrix(0.06172839506172839,0,0,0.06172839506172839,135.6172839506173,0)" xlink:href="#H"/></g><path fill="#333" d="M88-194c31-1 46 15 58 34l-1-101h50l1 261h-48c-2-10 0-23-3-31C134-8 116 4 84 4 32 4 16-41 15-95c0-56 19-97 73-99zm17 164c33 0 40-30 41-66 1-37-9-64-41-64s-38 30-39 65c0 43 13 65 39 65" id="R"/><g id="f"><use transform="matrix(0.04938271604938272,0,0,0.04938271604938272,0,0)" xlink:href="#K"/><use transform="matrix(0.034567901234567905,0,0,0.034567901234567905,10.814814814814815,2.488888888888889)" xlink:href="#R"/></g><g id="g"><use transform="matrix(0.06172839506172839,0,0,0.06172839506172839,0,0)" xlink:href="#G"/><use transform="matrix(0.06172839506172839,0,0,0.06172839506172839,14.814814814814813,0)" xlink:href="#F"/><use transform="matrix(0.06172839506172839,0,0,0.06172839506172839,27.160493827160494,0)" xlink:href="#D"/><use transform="matrix(0.06172839506172839,0,0,0.06172839506172839,39.50617283950617,0)" xlink:href="#A"/><use transform="matrix(0.06172839506172839,0,0,0.06172839506172839,46.85185185185185,0)" xlink:href="#B"/><use transform="matrix(0.06172839506172839,0,0,0.06172839506172839,57.96296296296296,0)" xlink:href="#C"/></g><path fill="#333" d="M76-54c-1 42 2 86-19 110H24C36 42 46 24 48 0H25v-54h51" id="S"/><g id="h"><use transform="matrix(0.04938271604938272,0,0,0.04938271604938272,0,0)" xlink:href="#K"/><use transform="matrix(0.034567901234567905,0,0,0.034567901234567905,10.814814814814815,2.488888888888889)" xlink:href="#L"/><use transform="matrix(0.034567901234567905,0,0,0.034567901234567905,17.728395061728396,2.488888888888889)" xlink:href="#S"/><use transform="matrix(0.034567901234567905,0,0,0.034567901234567905,21.185185185185187,2.488888888888889)" xlink:href="#R"/></g><path fill="#333" d="M133-34C117-15 103 5 69 4 32 3 11-16 11-54c-1-60 55-63 116-61 1-26-3-47-28-47-18 1-26 9-28 27l-52-2c7-38 36-58 82-57s74 22 75 68l1 82c-1 14 12 18 25 15v27c-30 8-71 5-69-32zm-48 3c29 0 43-24 42-57-32 0-66-3-65 30 0 17 8 27 23 27" id="T"/><g id="i"><use transform="matrix(0.04938271604938272,0,0,0.04938271604938272,0,0)" xlink:href="#K"/><use transform="matrix(0.034567901234567905,0,0,0.034567901234567905,10.814814814814815,2.488888888888889)" xlink:href="#L"/><use transform="matrix(0.034567901234567905,0,0,0.034567901234567905,17.728395061728396,2.488888888888889)" xlink:href="#S"/><use transform="matrix(0.034567901234567905,0,0,0.034567901234567905,21.185185185185187,2.488888888888889)" xlink:href="#T"/></g><g id="j"><use transform="matrix(0.04938271604938272,0,0,0.04938271604938272,0,0)" xlink:href="#K"/><use transform="matrix(0.034567901234567905,0,0,0.034567901234567905,10.814814814814815,2.488888888888889)" xlink:href="#L"/><use transform="matrix(0.034567901234567905,0,0,0.034567901234567905,17.728395061728396,2.488888888888889)" xlink:href="#S"/><use transform="matrix(0.034567901234567905,0,0,0.034567901234567905,21.185185185185187,2.488888888888889)" xlink:href="#L"/></g><g id="k"><use transform="matrix(0.04938271604938272,0,0,0.04938271604938272,0,0)" xlink:href="#K"/><use transform="matrix(0.034567901234567905,0,0,0.034567901234567905,10.814814814814815,2.488888888888889)" xlink:href="#R"/><use transform="matrix(0.034567901234567905,0,0,0.034567901234567905,18.385185185185183,2.488888888888889)" xlink:href="#S"/><use transform="matrix(0.034567901234567905,0,0,0.034567901234567905,21.841975308641977,2.488888888888889)" xlink:href="#R"/></g><g id="l"><use transform="matrix(0.04938271604938272,0,0,0.04938271604938272,0,0)" xlink:href="#K"/><use transform="matrix(0.034567901234567905,0,0,0.034567901234567905,10.814814814814815,2.488888888888889)" xlink:href="#R"/><use transform="matrix(0.034567901234567905,0,0,0.034567901234567905,18.385185185185183,2.488888888888889)" xlink:href="#S"/><use transform="matrix(0.034567901234567905,0,0,0.034567901234567905,21.841975308641977,2.488888888888889)" xlink:href="#T"/></g><g id="m"><use transform="matrix(0.04938271604938272,0,0,0.04938271604938272,0,0)" xlink:href="#K"/><use transform="matrix(0.034567901234567905,0,0,0.034567901234567905,10.814814814814815,2.488888888888889)" xlink:href="#T"/><use transform="matrix(0.034567901234567905,0,0,0.034567901234567905,17.728395061728396,2.488888888888889)" xlink:href="#S"/><use transform="matrix(0.034567901234567905,0,0,0.034567901234567905,21.185185185185187,2.488888888888889)" xlink:href="#T"/></g><g id="n"><use transform="matrix(0.04938271604938272,0,0,0.04938271604938272,0,0)" xlink:href="#K"/><use transform="matrix(0.034567901234567905,0,0,0.034567901234567905,10.814814814814815,2.488888888888889)" xlink:href="#R"/><use transform="matrix(0.034567901234567905,0,0,0.034567901234567905,18.385185185185183,2.488888888888889)" xlink:href="#S"/><use transform="matrix(0.034567901234567905,0,0,0.034567901234567905,21.841975308641977,2.488888888888889)" xlink:href="#L"/></g><g id="o"><use transform="matrix(0.04938271604938272,0,0,0.04938271604938272,0,0)" xlink:href="#K"/><use transform="matrix(0.034567901234567905,0,0,0.034567901234567905,10.814814814814815,2.488888888888889)" xlink:href="#T"/><use transform="matrix(0.034567901234567905,0,0,0.034567901234567905,17.728395061728396,2.488888888888889)" xlink:href="#S"/><use transform="matrix(0.034567901234567905,0,0,0.034567901234567905,21.185185185185187,2.488888888888889)" xlink:href="#R"/></g><g id="p"><use transform="matrix(0.04938271604938272,0,0,0.04938271604938272,0,0)" xlink:href="#K"/><use transform="matrix(0.034567901234567905,0,0,0.034567901234567905,10.814814814814815,2.488888888888889)" xlink:href="#T"/><use transform="matrix(0.034567901234567905,0,0,0.034567901234567905,17.728395061728396,2.488888888888889)" xlink:href="#S"/><use transform="matrix(0.034567901234567905,0,0,0.034567901234567905,21.185185185185187,2.488888888888889)" xlink:href="#L"/></g><g id="q"><use transform="matrix(0.04938271604938272,0,0,0.04938271604938272,0,0)" xlink:href="#K"/><use transform="matrix(0.034567901234567905,0,0,0.034567901234567905,10.814814814814815,2.488888888888889)" xlink:href="#L"/><use transform="matrix(0.034567901234567905,0,0,0.034567901234567905,17.728395061728396,2.488888888888889)" xlink:href="#S"/><use transform="matrix(0.034567901234567905,0,0,0.034567901234567905,21.185185185185187,2.488888888888889)" xlink:href="#K"/></g><g id="r"><use transform="matrix(0.04938271604938272,0,0,0.04938271604938272,0,0)" xlink:href="#K"/><use transform="matrix(0.034567901234567905,0,0,0.034567901234567905,10.814814814814815,2.488888888888889)" xlink:href="#R"/><use transform="matrix(0.034567901234567905,0,0,0.034567901234567905,18.385185185185183,2.488888888888889)" xlink:href="#S"/><use transform="matrix(0.034567901234567905,0,0,0.034567901234567905,21.841975308641977,2.488888888888889)" xlink:href="#K"/></g><g id="s"><use transform="matrix(0.04938271604938272,0,0,0.04938271604938272,0,0)" xlink:href="#K"/><use transform="matrix(0.034567901234567905,0,0,0.034567901234567905,10.814814814814815,2.488888888888889)" xlink:href="#T"/><use transform="matrix(0.034567901234567905,0,0,0.034567901234567905,17.728395061728396,2.488888888888889)" xlink:href="#S"/><use transform="matrix(0.034567901234567905,0,0,0.034567901234567905,21.185185185185187,2.488888888888889)" xlink:href="#K"/></g><path fill="#3a414a" d="M30 0v-248h187v28H63v79h144v27H63v87h162V0H30" id="U"/><path fill="#3a414a" d="M141 0L90-78 38 0H4l68-98-65-92h35l48 74 47-74h35l-64 92 68 98h-35" id="V"/><g id="t"><use transform="matrix(0.06172839506172839,0,0,0.06172839506172839,0,0)" xlink:href="#U"/><use transform="matrix(0.06172839506172839,0,0,0.06172839506172839,14.814814814814813,0)" xlink:href="#V"/><use transform="matrix(0.06172839506172839,0,0,0.06172839506172839,25.925925925925924,0)" xlink:href="#J"/><use transform="matrix(0.06172839506172839,0,0,0.06172839506172839,30.80246913580247,0)" xlink:href="#H"/></g><path fill="#333" d="M185-48c-13 30-37 53-82 52C43 2 14-33 14-96s30-98 90-98c62 0 83 45 84 108H66c0 31 8 55 39 56 18 0 30-7 34-22zm-45-69c5-46-57-63-70-21-2 6-4 13-4 21h74" id="W"/><g id="u"><use transform="matrix(0.04938271604938272,0,0,0.04938271604938272,0,0)" xlink:href="#K"/><use transform="matrix(0.034567901234567905,0,0,0.034567901234567905,10.814814814814815,2.488888888888889)" xlink:href="#R"/><use transform="matrix(0.034567901234567905,0,0,0.034567901234567905,18.385185185185183,2.488888888888889)" xlink:href="#S"/><use transform="matrix(0.034567901234567905,0,0,0.034567901234567905,21.841975308641977,2.488888888888889)" xlink:href="#W"/></g><g id="v"><use transform="matrix(0.04938271604938272,0,0,0.04938271604938272,0,0)" xlink:href="#K"/><use transform="matrix(0.034567901234567905,0,0,0.034567901234567905,10.814814814814815,2.488888888888889)" xlink:href="#L"/><use transform="matrix(0.034567901234567905,0,0,0.034567901234567905,17.728395061728396,2.488888888888889)" xlink:href="#S"/><use transform="matrix(0.034567901234567905,0,0,0.034567901234567905,21.185185185185187,2.488888888888889)" xlink:href="#W"/></g><g id="w"><use transform="matrix(0.04938271604938272,0,0,0.04938271604938272,0,0)" xlink:href="#K"/><use transform="matrix(0.034567901234567905,0,0,0.034567901234567905,10.814814814814815,2.488888888888889)" xlink:href="#T"/><use transform="matrix(0.034567901234567905,0,0,0.034567901234567905,17.728395061728396,2.488888888888889)" xlink:href="#S"/><use transform="matrix(0.034567901234567905,0,0,0.034567901234567905,21.185185185185187,2.488888888888889)" xlink:href="#W"/></g><g id="x"><use transform="matrix(0.04938271604938272,0,0,0.04938271604938272,0,0)" xlink:href="#K"/><use transform="matrix(0.034567901234567905,0,0,0.034567901234567905,10.814814814814815,2.488888888888889)" xlink:href="#T"/></g></defs></g></svg>