<svg xmlns="http://www.w3.org/2000/svg" xmlns:xlink="http://www.w3.org/1999/xlink" xmlns:lucid="lucid" width="775.5" height="715.06"><g transform="translate(40.500000002798224 300.5000000025764)" lucid:page-tab-id="0_0"><path d="M-1000-500h3000v1500h-3000z" fill="#fff"/><path d="M-40-294a6 6 0 0 1 6-6h762.5a6 6 0 0 1 6 6v702.06a6 6 0 0 1-6 6H-34a6 6 0 0 1-6-6z" stroke="#3a414a" fill="#fff"/><path d="M295.3-21.45a6 6 0 0 1 6-6h116.27a6 6 0 0 1 6 6V54.9a6 6 0 0 1-6 6H301.3a6 6 0 0 1-6-6z" stroke="#3a414a" fill="#7cff89"/><path d="M308.12-27.45V60.9m102.62-88.35V60.9" stroke="#3a414a" fill="none"/><use xlink:href="#a" transform="matrix(1,0,0,1,316.3254301146484,-22.453511232769785) translate(-3.382716049382715 43.94444444444444)"/><path d="M129.6-88.66c0 25.83-20.34 46.76-45.43 46.76-25.1 0-45.43-20.93-45.43-46.76 0-25.82 20.34-46.75 45.43-46.75 25.1 0 45.43 20.92 45.43 46.74z" stroke="#3a414a" fill="#ffdda6"/><use xlink:href="#b" transform="matrix(1,0,0,1,43.73922321809664,-130.41470475683602) translate(17.074074074074076 46.65277777777778)"/><path d="M658.74-117.77c0 49.88-38.3 90.32-85.52 90.32-47.23 0-85.52-40.44-85.52-90.32 0-49.88 38.3-90.32 85.52-90.32 47.23 0 85.52 40.45 85.52 90.33z" stroke="#3a414a" fill="#b8f5ed"/><use xlink:href="#c" transform="matrix(1,0,0,1,492.70474045947594,-203.08574327138888) translate(52.080246913580254 92.59027777777777)"/><path d="M124.35 20.98l-.9.3L116-1.77h1zM110.12-23.1h-1l-6.97-21.62.9-.3z" stroke="#3a414a" stroke-width=".05" fill="#3a414a"/><path d="M103.05-45l-.9.3-.14-.43.88-.42z" fill="#3a414a"/><path stroke="#3a414a" stroke-width=".05" fill="#3a414a"/><path d="M128.43 35.17l-8.8-12.15 8.83-2.85z" fill="#3a414a"/><path d="M128.9 36.64l-10.03-13.87 10.07-3.25zm-8.5-13.37l7.56 10.44.03-12.87z" stroke="#3a414a" stroke-width=".05" fill="#3a414a"/><use xlink:href="#d" transform="matrix(1,0,0,1,104.20399891213304,-23.095607122094027) translate(0 14.222222222222223)"/><path d="M444.95 306.86c0 30.2-43.08 54.7-96.2 54.7-53.14 0-96.22-24.5-96.22-54.7 0-30.2 43.08-54.7 96.2-54.7 53.14 0 96.22 24.5 96.22 54.7z" stroke="#3a414a" fill="#b8f5ed"/><use xlink:href="#e" transform="matrix(1,0,0,1,257.53232666637246,257.161197713486) translate(20.604938271604937 55.27777777777778)"/><path d="M294.82-184.9l-13.56 1.84-31.58 5.6-27.8 6.12-22.94 6.07-18.24 5.66-14.26 5.07-11.1 4.5-8.68 3.93-6.84 3.46-5.46 3.05-4.4 2.72-3.57 2.4-2.95 2.18-2.43 1.96-2.03 1.78-1.72 1.63-1.45 1.5-.9 1.03-.72-.63.93-1.04 1.48-1.53 1.75-1.66 2.06-1.8 2.47-2 2.97-2.2 3.6-2.42 4.44-2.73 5.5-3.08 6.87-3.48 8.72-3.96 11.14-4.5 14.3-5.1 18.28-5.66 23-6.08 27.8-6.14 31.63-5.6 13.72-1.85zm120.82-7.44l15.27 1.15 12.3 1.45 9.9 1.6 8.1 1.63 6.64 1.65 5.52 1.6 4.63 1.58 3.9 1.52 3.35 1.46 2.87 1.4-.42.84-2.85-1.38-3.3-1.44-3.9-1.5-4.58-1.55-5.48-1.6-6.62-1.64-8.04-1.63-9.88-1.58-12.24-1.44-15.23-1.15-18.94-.6-23.26.2-27.76 1.4-31.43 2.9-1 .14v-.96l.9-.12 31.47-2.9 27.8-1.42 23.3-.2z" stroke="#3a414a" stroke-width=".05" fill="#3a414a"/><path d="M114.93-124.4l-.34.37-.74-.6.36-.4z" fill="#3a414a"/><path stroke="#3a414a" stroke-width=".05" fill="#3a414a"/><path d="M499.86-168.34l-14.3-4.54 5.4-7.54z" fill="#3a414a"/><path d="M501.1-167.45l-16.3-5.18 6.16-8.6zm-14.77-5.7l12.28 3.9-7.63-10.36z" stroke="#3a414a" stroke-width=".05" fill="#3a414a"/><use xlink:href="#f" transform="matrix(1,0,0,1,294.82210852218935,-197.27210626849154) translate(0 14.222222222222223)"/><path d="M231.15 91.35c0 37.1-28.7 67.18-64.14 67.18-35.4 0-64.12-30.08-64.12-67.18 0-37.1 28.7-67.17 64.13-67.17 35.44 0 64.15 30.07 64.15 67.17z" stroke="#3a414a" fill="#b8f5ed"/><use xlink:href="#g" transform="matrix(1,0,0,1,107.87715425257943,29.175372730943593) translate(24.345679012345677 68.55902777777777)"/><path d="M270.5-128.93l-3.58 1.77-8.8 4.83-8.22 4.98-7.7 5.1-7.15 5.2-6.67 5.3-6.2 5.35-5.76 5.4-5.34 5.45-4.94 5.5-4.58 5.52-4.22 5.56-3.9 5.6-3.58 5.66-3.3 5.68-3 5.75-2.73 5.82-2.48 5.88-2.22 5.96-1.96 6.05-1.72 6.16-1.47 6.28-1.23 6.42-.97 6.56-.7 6.74-.44 6.93-.14 6.65-.95-.02.14-6.67.43-6.98.7-6.77.98-6.6 1.24-6.46 1.5-6.33 1.72-6.2 1.98-6.1 2.23-6 2.5-5.9 2.74-5.86 3.03-5.77 3.3-5.73 3.62-5.7 3.92-5.62 4.25-5.6 4.6-5.56 4.97-5.52 5.36-5.48 5.78-5.43 6.23-5.4 6.7-5.3 7.2-5.22 7.72-5.13 8.25-5 8.83-4.85 4-2zm151.98-30.43l12.83 1.08 12.53 1.58 12.16 2.05 11.7 2.5 4.2 1.07-.25.92-4.15-1.07-11.7-2.48-12.1-2.06-12.5-1.58-12.78-1.07-13.03-.56h-13.2l-13.24.56-13.2 1.1-13.04 1.65-12.8 2.17-12.47 2.65-12.06 3.1-11.6 3.5-8.56 2.97v-1l8.27-2.9 11.64-3.5 12.1-3.1 12.5-2.66 12.84-2.17 13.1-1.64 13.22-1.1 13.28-.57h13.23z" stroke="#3a414a" stroke-width=".05" fill="#3a414a"/><path d="M167.5 23.17v.52l-.48-.02h-.48v-.53z" fill="#3a414a"/><path stroke="#3a414a" stroke-width=".05" fill="#3a414a"/><path d="M490-146.66l-15 .63 2.5-8.93z" fill="#3a414a"/><path d="M491.47-146.24l-17.1.72 2.84-10.2zm-15.83-.3l12.87-.53-10.72-7.13z" stroke="#3a414a" stroke-width=".05" fill="#3a414a"/><use xlink:href="#h" transform="matrix(1,0,0,1,270.4883643853766,-146.81229143561626) translate(0 14.222222222222223)"/><path d="M257.9 264.04l-.82.5-22.72-37.62h1.1zm-35.33-58.46h-1.1l-30.65-50.7.8-.5z" stroke="#3a414a" stroke-width=".05" fill="#3a414a"/><path d="M191.64 154.4l-.8.48-.3-.5.86-.37z" fill="#3a414a"/><path stroke="#3a414a" stroke-width=".05" fill="#3a414a"/><path d="M265.13 276.92l-11.35-9.8 7.93-4.8z" fill="#3a414a"/><path d="M265.92 278.24l-12.95-11.2 9.06-5.47zm-11.33-11.06l9.73 8.42-2.93-12.54z" stroke="#3a414a" stroke-width=".05" fill="#3a414a"/><use xlink:href="#i" transform="matrix(1,0,0,1,214.415428783398,205.5852888474262) translate(0 14.222222222222223)"/><path d="M161.78 174.74l-.2.28-1.42 1.6-1.6 1.42-1.77 1.22-2.02 1.05-2.27.87-2.58.64-2.47.3v-.95l2.3-.28 2.48-.6 2.16-.83 1.9-1 1.68-1.15 1.5-1.34 1.36-1.53.16-.24zm-37.42-31.87l-2.52 2.87-1.92 2.8-1.3 2.5-.86 2.3-.52 2.16-.24 2.05v2l.26 2 .5 2 .8 2.05 1.12 2.12.6.88h-.93v.3l-.48-.68-1.18-2.22-.84-2.17-.53-2.12-.27-2.1v-2.1l.24-2.17.55-2.26.9-2.4 1.35-2.6 1.98-2.92 2.56-2.9z" stroke="#3a414a" stroke-width=".05" fill="#3a414a"/><path d="M124.34 142.2l.35.3-.35.38-.7-.63.34-.4z" fill="#3a414a"/><path stroke="#3a414a" stroke-width=".05" fill="#3a414a"/><path d="M165.9 175.53l-8.9-2.55 8.38-12.44z" fill="#3a414a"/><path d="M166.4 176.17l-10.16-2.9 9.56-14.2zm-8.64-3.46l7.65 2.2-.44-12.88z" stroke="#3a414a" stroke-width=".05" fill="#3a414a"/><use xlink:href="#j" transform="matrix(1,0,0,1,119.34806115204047,168.59544732370048) translate(0 14.222222222222223)"/><path d="M523.17-224.8h.12l-.3.36-1.36 2.1-1.1 2.1-.82 2.15-.6 2.2-.38 2.25-.14 2.34.1 2.44.38 2.6.72 2.82 1.13 3.1 1.68 3.43 2.2 3.5-.8.5-2.22-3.55-1.73-3.53-1.16-3.18-.75-2.9-.4-2.7-.1-2.56.15-2.44.4-2.34.62-2.3.87-2.23 1.12-2.2 1.4-2.17.95-1.16zm30.36-12.3l2.63.64 2.42.86 2.2 1.06 2 1.22 1.83 1.4 1.7 1.6 1.53 1.77 1.4 2 1.02 1.86-.83.47-1-1.8-1.35-1.94-1.47-1.7-1.6-1.52-1.76-1.33-1.92-1.18-2.1-1.02-2.33-.83-2.55-.62-.77-.1v-.97z" stroke="#3a414a" stroke-width=".05" fill="#3a414a"/><path d="M525.05-193l-.63.43-.15.12-.3-.46.82-.5z" fill="#3a414a"/><path stroke="#3a414a" stroke-width=".05" fill="#3a414a"/><path d="M572.88-210.17l-7.5-12.98 9.06-1.94z" fill="#3a414a"/><path d="M573.2-208.66l-8.57-14.82 10.35-2.2zm-7.1-14.16l6.46 11.15 1.34-12.82z" stroke="#3a414a" stroke-width=".05" fill="#3a414a"/><use xlink:href="#k" transform="matrix(1,0,0,1,523.1667786798353,-246.13215232693378) translate(0 14.222222222222223)"/><path d="M604.17 196.3l-4.77 9.47-5 8.93-5.18 8.4-5.32 7.9-5.45 7.38-5.54 6.9-5.6 6.4-5.7 5.97-5.73 5.53-5.77 5.12-5.8 4.73-5.83 4.36-5.87 4-5.9 3.68-5.92 3.37-5.97 3.06-6 2.8-6.06 2.48-6.12 2.22-6.18 1.96-6.27 1.7-6.35 1.44-6.46 1.18-6.58.93-2.93.3-.1-.95 2.92-.3 6.54-.9 6.43-1.18 6.3-1.43 6.24-1.7 6.15-1.94 6.08-2.2 6.02-2.5 5.97-2.74 5.92-3.05 5.9-3.33 5.86-3.66 5.83-3.98 5.82-4.34 5.77-4.7 5.73-5.1 5.7-5.5 5.66-5.93 5.58-6.4 5.52-6.85 5.42-7.35 5.3-7.86 5.16-8.38 4.98-8.9 4.76-9.42 2.14-4.72h1.04zm8.55-222.67l3.54 9.14 3.24 9.54 2.92 9.93 2.56 10.3 2.2 10.7 1.77 11.05 1.35 11.38.9 11.66.4 11.92-.1 12.1-.6 12.22-1.1 12.27-1.65 12.23-2.14 12.1-2.62 11.92-3.08 11.64-3.5 11.3-1.72 4.83h-1l1.82-5.13 3.5-11.26 3.06-11.6 2.62-11.88 2.13-12.07 1.64-12.18 1.12-12.22.6-12.2.1-12.05-.4-11.87-.9-11.63L628 34.4l-1.76-11-2.2-10.65-2.54-10.27-2.9-9.88-3.23-9.5-3.53-9.1-3.6-8.28.86-.38z" stroke="#3a414a" stroke-width=".05" fill="#3a414a"/><path d="M609.1-34.65l-.86.38-.2-.46.86-.4z" fill="#3a414a"/><path stroke="#3a414a" stroke-width=".05" fill="#3a414a"/><path d="M461.55 310.67l-14.5-3.9 14.02-5.35z" fill="#3a414a"/><path d="M462.06 311.3l-16.53-4.44 15.98-6.12zm-13.46-4.6l12.44 3.35-.4-7.96z" stroke="#3a414a" stroke-width=".05" fill="#3a414a"/><use xlink:href="#l" transform="matrix(1,0,0,1,596.167352821644,169.849046980594) translate(0 14.222222222222223)"/><path d="M287.2 366.6l-.24.17-2.67 1.3-2.82.83-2.13.25v-.96l1.94-.24 2.64-.77 2.53-1.25.16-.12zm-20.4-29.77l-3 3.8-1.96 3.56-1.08 3.14-.48 2.88.02 2.7.02.12h-.97V353l-.02-2.85.5-3.04 1.14-3.3 2.03-3.7 3.05-3.86z" stroke="#3a414a" stroke-width=".05" fill="#3a414a"/><path d="M267.08 336.47l-.3.37-.73-.6.34-.42z" fill="#3a414a"/><path stroke="#3a414a" stroke-width=".05" fill="#3a414a"/><path d="M290.75 368.82l-7.45-5.5 12.2-8.72z" fill="#3a414a"/><path d="M291 369.6l-8.5-6.3 13.93-9.94zm-6.9-6.3l6.4 4.75 4.1-12.22z" stroke="#3a414a" stroke-width=".05" fill="#3a414a"/><use xlink:href="#m" transform="matrix(1,0,0,1,251.24943045642019,353.04351951999115) translate(0 14.222222222222223)"/><path d="M300.02-84.34l-2 .94-8.6 4.5-8.12 4.7-7.67 4.85-7.28 5.06-6.95 5.3-6.66 5.5-6.4 5.76-6.17 6.04-5.96 6.35-5.78 6.7-5.62 7.1-5.47 7.53L212-5.98l-5.22 8.6-5.1 9.27-1.4 2.83-.85-.42 1.42-2.85 5.1-9.3 5.24-8.64 5.35-8.06 5.5-7.57 5.64-7.12 5.8-6.74 6-6.37 6.2-6.07 6.42-5.78 6.7-5.54 6.97-5.3 7.3-5.08 7.7-4.9 8.15-4.7 8.66-4.5 2.42-1.15zm186.7-32.94l-35.08.7-27.23 1.68-22.2 2.33-18.83 2.76-16.34 3.1-14.44 3.4-12.96 3.6-10.86 3.52v-1l10.6-3.43 12.97-3.63 14.48-3.4 16.38-3.1 18.87-2.8 22.26-2.3 27.27-1.7 35.1-.7z" stroke="#3a414a" stroke-width=".05" fill="#3a414a"/><path d="M487.2-117.77v.47l-.5.02-.02-.95.54-.02z" fill="#3a414a"/><path stroke="#3a414a" stroke-width=".05" fill="#3a414a"/><path d="M203.83 16.96l-10.3 10.9L195.45 13z" fill="#3a414a"/><path d="M204.62 16.8l-11.75 12.45 2.2-16.97zM194.2 26.5l8.83-9.37-7.2-3.4z" stroke="#3a414a" stroke-width=".05" fill="#3a414a"/><use xlink:href="#n" transform="matrix(1,0,0,1,300.0226814665414,-101.92258719565872) translate(0 14.222222222222223)"/><path d="M571.24 182.36l-4.57 8.78-4.82 8.4-5.08 8-5.32 7.7-5.57 7.36-5.8 7.05-6.08 6.77-6.34 6.48-6.6 6.23-6.9 5.97-7.2 5.72-7.5 5.5-7.88 5.23-8.25 5-8.65 4.8-9.1 4.52-9.56 4.28-10.1 4-2.2.82-.32-.9 2.17-.8 10.07-4 9.54-4.26 9.06-4.5 8.62-4.76 8.2-5 7.84-5.2 7.5-5.47 7.16-5.7 6.86-5.95 6.58-6.2 6.3-6.45 6.05-6.74 5.8-7.02 5.53-7.32 5.3-7.65 5.05-8 4.8-8.35 4.56-8.74 3.66-7.84h1.05zM593.5-11.27l2.54 16.98 1.76 16.44L598.82 38l.35 15.24-.28 14.62-.87 14-1.38 13.38-1.86 12.78-2.3 12.2-2.72 11.6-3.07 11.1-3.18 9.84h-1l3.28-10.12 3.06-11.05 2.7-11.6 2.3-12.14 1.85-12.73 1.4-13.35.84-13.96.28-14.58-.35-15.2-1.02-15.82-1.75-16.4-2.53-16.93-.26-1.36.94-.17z" stroke="#3a414a" stroke-width=".05" fill="#3a414a"/><path d="M597.23-13.9l-9.1 1.74 1.85-14.9z" fill="#3a414a"/><path d="M597.96-13.57l-10.4 2 2.13-16.98zm-9.28.82l7.82-1.5-6.23-11.29z" stroke="#3a414a" stroke-width=".05" fill="#3a414a"/><path d="M443.74 294.96l-.48.18-.18-.47-.17-.4.5-.2z" fill="#3a414a"/><path stroke="#3a414a" stroke-width=".05" fill="#3a414a"/><use xlink:href="#o" transform="matrix(1,0,0,1,564.7267097665663,152.76517369594146) translate(0 14.222222222222223)"/><path d="M285.54 264.5l-.8.5-31.7-50.06h1.12zm-44.9-70.9h-1.12l-22.88-36.1.8-.52z" stroke="#3a414a" stroke-width=".05" fill="#3a414a"/><path d="M285.84 264.95l-.86.42-.25-.4.8-.5z" fill="#3a414a"/><path stroke="#3a414a" stroke-width=".05" fill="#3a414a"/><path d="M220.7 154.33l-7.84 4.96-3.72-14.54z" fill="#3a414a"/><path d="M221.5 154.38l-8.94 5.66-4.24-16.58zm-8.34 4.16l6.72-4.26-9.92-8.22z" stroke="#3a414a" stroke-width=".05" fill="#3a414a"/><use xlink:href="#p" transform="matrix(1,0,0,1,232.79146602136055,193.61076285352723) translate(0 14.222222222222223)"/><path d="M231.7 35.6l-5.08 3.64-9.9 8.1-.6-.75 9.92-8.12 5.66-4.05zm46.8-17.57l-4.83.54-6.5 1.14-5.77 1.42-.94.3v-1l.68-.22 5.83-1.4 6.57-1.17 4.84-.54z" stroke="#3a414a" stroke-width=".05" fill="#3a414a"/><path d="M216.74 47.32l-.4.32-.6-.72.4-.33z" fill="#3a414a"/><path stroke="#3a414a" stroke-width=".05" fill="#3a414a"/><path d="M293.18 16.8l-14.02 5.36-.47-9.26z" fill="#3a414a"/><path d="M294.7 16.73l-15.98 6.1-.54-10.55zm-15.1 4.76l12.04-4.6-12.44-3.37z" stroke="#3a414a" stroke-width=".05" fill="#3a414a"/><use xlink:href="#q" transform="matrix(1,0,0,1,231.70126202206734,15.774745297728195) translate(0 14.222222222222223)"/><path d="M411.48-86.53l-1.05.3-5.86 2.05-4.9 1.94-4.2 1.86-3.63 1.8-3.2 1.76-2.84 1.72-2.54 1.7-2.28 1.65-2.08 1.64-1.9 1.63-1.73 1.62-1.6 1.63-1.46 1.63-1.35 1.65-1.26 1.66-1.17 1.7-1.1 1.7-1 1.74-.93 1.8-.86 1.82-.8 1.9-.73 1.96-.65 2.03-.45 1.6-.9-.25.44-1.62.68-2.08.74-2 .8-1.92.9-1.87.94-1.82 1.03-1.77 1.1-1.73 1.2-1.72 1.28-1.7 1.4-1.66 1.5-1.67 1.6-1.66 1.77-1.65 1.92-1.66 2.1-1.67 2.32-1.7 2.57-1.7 2.87-1.74 3.23-1.77 3.67-1.83 4.23-1.88 4.94-1.97 5.9-2.05 1.34-.4zm76.65-14.8L440.9-93.7v-.95l47.08-7.6z" stroke="#3a414a" stroke-width=".05" fill="#3a414a"/><path d="M366-43.15l-6.37 13.6-2.84-14.74z" fill="#3a414a"/><path d="M366.7-43.54l-7.26 15.5-3.24-16.8zm-6.88 12.45l5.46-11.66-7.9-.98z" stroke="#3a414a" stroke-width=".05" fill="#3a414a"/><path d="M488.63-101.4l-.5.08-.16-.94.5-.08z" fill="#3a414a"/><path stroke="#3a414a" stroke-width=".05" fill="#3a414a"/><use xlink:href="#r" transform="matrix(1,0,0,1,411.4806183556182,-101.72835114512932) translate(0 14.222222222222223)"/><path d="M359.9 251.53h-.96v-70.76h.95zm0-173.74v81.64h-.95V77.8z" stroke="#3a414a" stroke-width=".05" fill="#3a414a"/><path d="M359.9 251.52v.55l-.96-.08v-.48z" fill="#3a414a"/><path stroke="#3a414a" stroke-width=".05" fill="#3a414a"/><path d="M364.06 77.3h-9.27l4.63-14.27z" fill="#3a414a"/><path d="M364.72 77.77h-10.58l5.3-16.28zm-9.27-.95h7.96l-3.97-12.26z" stroke="#3a414a" stroke-width=".05" fill="#3a414a"/><use xlink:href="#s" transform="matrix(1,0,0,1,345.0411283382427,159.44080680836484) translate(0 14.222222222222223)"/><path d="M483.14 73.67a7.04 7.04 0 0 1 9.13 0l55 46.9a5.12 5.12 0 0 1 0 7.8l-55 46.9a7.04 7.04 0 0 1-9.13 0l-55-46.9a5.12 5.12 0 0 1 0-7.8z" stroke="#3a414a" fill="#dfe3e8"/><use xlink:href="#t" transform="matrix(1,0,0,1,428.56680942499315,74.77253772745206) translate(40.517345679012344 55.27777777777778)"/><path d="M494.15 52.54l-.9-.28 8.66-27.58h1zm29.97-95.38l-14.5 46.2h-1l14.6-46.48z" stroke="#3a414a" stroke-width=".05" fill="#3a414a"/><path d="M524.22-43.16l-.1.33-.9-.28.2-.66z" fill="#3a414a"/><path stroke="#3a414a" stroke-width=".05" fill="#3a414a"/><path d="M503.38 54.95l-.28.9L494 53l-5.84 18.63-.9-.3 5.84-18.62-9.08-2.84.28-.9z" stroke="#3a414a" stroke-width=".05" fill="#3a414a"/><use xlink:href="#u" transform="matrix(1,0,0,1,491.38354075631486,3.3456040376227385) translate(0 14.222222222222223)"/><path d="M406.2 120.64l-.16.94-63.25-10.8v-.95zm-91.5-15.6v.96l-82.63-14.1.16-.93z" stroke="#3a414a" stroke-width=".05" fill="#3a414a"/><path d="M232.24 90.97l-.16.94-.44-.07v-.97z" fill="#3a414a"/><path stroke="#3a414a" stroke-width=".05" fill="#3a414a"/><path d="M408.27 111.33l-1.6 9.4L425.9 124l-.15.94-19.24-3.28-1.6 9.4-.93-.17 3.36-19.73z" stroke="#3a414a" stroke-width=".05" fill="#3a414a"/><use xlink:href="#v" transform="matrix(1,0,0,1,314.6938945136148,97.24696248531556) translate(0 14.222222222222223)"/><path d="M391.96 257.2l-.76-.58 28.04-37.32h1.2zm60.8-80.96l-16.3 21.72h-1.2l16.75-22.3z" stroke="#3a414a" stroke-width=".05" fill="#3a414a"/><path d="M391.97 257.18l-.2.27-.97-.3.4-.54z" fill="#3a414a"/><path stroke="#3a414a" stroke-width=".05" fill="#3a414a"/><path d="M464.78 160.25l-11.72 15.6 7.6 5.73-.56.76-16-12.02.58-.75 7.62 5.72 11.72-15.63z" stroke="#3a414a" stroke-width=".05" fill="#3a414a"/><use xlink:href="#w" transform="matrix(1,0,0,1,413.79375641912173,197.96483953135407) translate(0 14.222222222222223)"/><path d="M77.74 196.27l5.85 9.56 6.1 9.12 6.36 8.66 6.54 8.18 6.7 7.7 6.8 7.18 6.92 6.7 7 6.24 7.03 5.77 7.07 5.32 7.1 4.87 7.13 4.48 7.13 4.07 7.14 3.7 7.15 3.3 7.16 2.98 7.17 2.63 7.2 2.3 7.2 1.98 7.26 1.68 7.3 1.35 7.34 1.05 5.32.54-.1.94-5.33-.53-7.4-1.06-7.33-1.36-7.3-1.67-7.25-2-7.23-2.3-7.22-2.64-7.2-3-7.18-3.34-7.18-3.7-7.16-4.1-7.16-4.5-7.13-4.9-7.1-5.35-7.08-5.78-7.02-6.26-6.94-6.74-6.85-7.22-6.73-7.7-6.56-8.2-6.37-8.7-6.14-9.16-5.88-9.6-3.25-5.83h1.1zM64.06-45.67l-3.6 7.34-3.52 8-3.23 8.28-2.92 8.54-2.6 8.8-2.3 9.07-1.94 9.36-1.58 9.64-1.2 9.92-.8 10.2-.4 10.44.05 10.7.52 10.9.98 11.1 1.48 11.22 1.97 11.33 2.47 11.36 2.98 11.36 3.46 11.28 3.94 11.14 4.4 10.94 1.93 4.3h-1.05l-1.77-3.93-4.4-10.97-3.94-11.18-3.48-11.32-2.98-11.4-2.48-11.4L42.04 98l-1.48-11.27-1-11.13-.5-10.95L39 53.92l.4-10.5.8-10.22 1.22-9.96 1.6-9.68 1.94-9.4 2.3-9.12 2.62-8.84 2.94-8.57 3.24-8.3 3.54-8.06 3.6-7.36z" stroke="#3a414a" stroke-width=".05" fill="#3a414a"/><path d="M64.28-46.1l-.22.44-.86-.4.23-.5z" fill="#3a414a"/><path stroke="#3a414a" stroke-width=".05" fill="#3a414a"/><path d="M250.42 306.8l-14.47 3.94.44-9.26z" fill="#3a414a"/><path d="M251.95 306.86l-16.5 4.5.5-10.55zm-15.5 3.25l12.43-3.4-12.05-4.54z" stroke="#3a414a" stroke-width=".05" fill="#3a414a"/><use xlink:href="#x" transform="matrix(1,0,0,1,59.75960608905098,169.57696509939237) translate(0 14.222222222222223)"/><defs><path fill="#3a414a" d="M30-248c87 1 191-15 191 75 0 78-77 80-158 76V0H30v-248zm33 125c57 0 124 11 124-50 0-59-68-47-124-48v98" id="y"/><path fill="#3a414a" d="M84 4C-5 8 30-112 23-190h32v120c0 31 7 50 39 49 72-2 45-101 50-169h31l1 190h-30c-1-10 1-25-2-33-11 22-28 36-60 37" id="z"/><path fill="#3a414a" d="M114-163C36-179 61-72 57 0H25l-1-190h30c1 12-1 29 2 39 6-27 23-49 58-41v29" id="A"/><path fill="#3a414a" d="M96-169c-40 0-48 33-48 73s9 75 48 75c24 0 41-14 43-38l32 2c-6 37-31 61-74 61-59 0-76-41-82-99-10-93 101-131 147-64 4 7 5 14 7 22l-32 3c-4-21-16-35-41-35" id="B"/><path fill="#3a414a" d="M106-169C34-169 62-67 57 0H25v-261h32l-1 103c12-21 28-36 61-36 89 0 53 116 60 194h-32v-121c2-32-8-49-39-48" id="C"/><path fill="#3a414a" d="M141-36C126-15 110 5 73 4 37 3 15-17 15-53c-1-64 63-63 125-63 3-35-9-54-41-54-24 1-41 7-42 31l-33-3c5-37 33-52 76-52 45 0 72 20 72 64v82c-1 20 7 32 28 27v20c-31 9-61-2-59-35zM48-53c0 20 12 33 32 33 41-3 63-29 60-74-43 2-92-5-92 41" id="D"/><path fill="#3a414a" d="M135-143c-3-34-86-38-87 0 15 53 115 12 119 90S17 21 10-45l28-5c4 36 97 45 98 0-10-56-113-15-118-90-4-57 82-63 122-42 12 7 21 19 24 35" id="E"/><path fill="#3a414a" d="M100-194c63 0 86 42 84 106H49c0 40 14 67 53 68 26 1 43-12 49-29l28 8c-11 28-37 45-77 45C44 4 14-33 15-96c1-61 26-98 85-98zm52 81c6-60-76-77-97-28-3 7-6 17-6 28h103" id="F"/><g id="a"><use transform="matrix(0.06172839506172839,0,0,0.06172839506172839,0,0)" xlink:href="#y"/><use transform="matrix(0.06172839506172839,0,0,0.06172839506172839,14.814814814814813,0)" xlink:href="#z"/><use transform="matrix(0.06172839506172839,0,0,0.06172839506172839,27.160493827160494,0)" xlink:href="#A"/><use transform="matrix(0.06172839506172839,0,0,0.06172839506172839,34.50617283950617,0)" xlink:href="#B"/><use transform="matrix(0.06172839506172839,0,0,0.06172839506172839,45.61728395061728,0)" xlink:href="#C"/><use transform="matrix(0.06172839506172839,0,0,0.06172839506172839,57.962962962962955,0)" xlink:href="#D"/><use transform="matrix(0.06172839506172839,0,0,0.06172839506172839,70.30864197530863,0)" xlink:href="#E"/><use transform="matrix(0.06172839506172839,0,0,0.06172839506172839,81.41975308641975,0)" xlink:href="#F"/></g><path fill="#3a414a" d="M185-189c-5-48-123-54-124 2 14 75 158 14 163 119 3 78-121 87-175 55-17-10-28-26-33-46l33-7c5 56 141 63 141-1 0-78-155-14-162-118-5-82 145-84 179-34 5 7 8 16 11 25" id="G"/><path fill="#3a414a" d="M59-47c-2 24 18 29 38 22v24C64 9 27 4 27-40v-127H5v-23h24l9-43h21v43h35v23H59v120" id="H"/><g id="b"><use transform="matrix(0.06172839506172839,0,0,0.06172839506172839,0,0)" xlink:href="#G"/><use transform="matrix(0.06172839506172839,0,0,0.06172839506172839,14.814814814814813,0)" xlink:href="#H"/><use transform="matrix(0.06172839506172839,0,0,0.06172839506172839,20.98765432098765,0)" xlink:href="#D"/><use transform="matrix(0.06172839506172839,0,0,0.06172839506172839,33.33333333333333,0)" xlink:href="#A"/><use transform="matrix(0.06172839506172839,0,0,0.06172839506172839,40.679012345679006,0)" xlink:href="#H"/></g><path fill="#3a414a" d="M30-248c118-7 216 8 213 122C240-48 200 0 122 0H30v-248zM63-27c89 8 146-16 146-99s-60-101-146-95v194" id="I"/><path fill="#3a414a" d="M24-231v-30h32v30H24zM24 0v-190h32V0H24" id="J"/><g id="c"><use transform="matrix(0.06172839506172839,0,0,0.06172839506172839,0,0)" xlink:href="#I"/><use transform="matrix(0.06172839506172839,0,0,0.06172839506172839,15.987654320987653,0)" xlink:href="#J"/><use transform="matrix(0.06172839506172839,0,0,0.06172839506172839,20.864197530864196,0)" xlink:href="#A"/><use transform="matrix(0.06172839506172839,0,0,0.06172839506172839,28.209876543209873,0)" xlink:href="#F"/><use transform="matrix(0.06172839506172839,0,0,0.06172839506172839,40.55555555555555,0)" xlink:href="#B"/><use transform="matrix(0.06172839506172839,0,0,0.06172839506172839,51.66666666666666,0)" xlink:href="#H"/></g><path fill="#333" d="M135-194c53 0 70 44 70 98 0 56-19 98-73 100-31 1-45-17-59-34 3 33 2 69 2 105H25l-1-265h48c2 10 0 23 3 31 11-24 29-35 60-35zM114-30c33 0 39-31 40-66 0-38-9-64-40-64-56 0-55 130 0 130" id="K"/><path fill="#333" d="M137-138c1-29-70-34-71-4 15 46 118 7 119 86 1 83-164 76-172 9l43-7c4 19 20 25 44 25 33 8 57-30 24-41C81-84 22-81 20-136c-2-80 154-74 161-7" id="L"/><g id="d"><use transform="matrix(0.04938271604938272,0,0,0.04938271604938272,0,0)" xlink:href="#K"/><use transform="matrix(0.034567901234567905,0,0,0.034567901234567905,10.814814814814815,2.488888888888889)" xlink:href="#L"/></g><path fill="#3a414a" d="M205 0l-28-72H64L36 0H1l101-248h38L239 0h-34zm-38-99l-47-123c-12 45-31 82-46 123h93" id="M"/><path fill="#3a414a" d="M85-194c31 0 48 13 60 33l-1-100h32l1 261h-30c-2-10 0-23-3-31C134-8 116 4 85 4 32 4 16-35 15-94c0-66 23-100 70-100zm9 24c-40 0-46 34-46 75 0 40 6 74 45 74 42 0 51-32 51-76 0-42-9-74-50-73" id="N"/><path fill="#3a414a" d="M108 0H70L1-190h34L89-25l56-165h34" id="O"/><path fill="#3a414a" d="M210-169c-67 3-38 105-44 169h-31v-121c0-29-5-50-35-48C34-165 62-65 56 0H25l-1-190h30c1 10-1 24 2 32 10-44 99-50 107 0 11-21 27-35 58-36 85-2 47 119 55 194h-31v-121c0-29-5-49-35-48" id="P"/><path fill="#3a414a" d="M117-194c89-4 53 116 60 194h-32v-121c0-31-8-49-39-48C34-167 62-67 57 0H25l-1-190h30c1 10-1 24 2 32 11-22 29-35 61-36" id="Q"/><g id="e"><use transform="matrix(0.06172839506172839,0,0,0.06172839506172839,0,0)" xlink:href="#M"/><use transform="matrix(0.06172839506172839,0,0,0.06172839506172839,14.814814814814813,0)" xlink:href="#N"/><use transform="matrix(0.06172839506172839,0,0,0.06172839506172839,27.160493827160494,0)" xlink:href="#O"/><use transform="matrix(0.06172839506172839,0,0,0.06172839506172839,38.27160493827161,0)" xlink:href="#F"/><use transform="matrix(0.06172839506172839,0,0,0.06172839506172839,50.617283950617285,0)" xlink:href="#A"/><use transform="matrix(0.06172839506172839,0,0,0.06172839506172839,57.96296296296296,0)" xlink:href="#H"/><use transform="matrix(0.06172839506172839,0,0,0.06172839506172839,64.1358024691358,0)" xlink:href="#J"/><use transform="matrix(0.06172839506172839,0,0,0.06172839506172839,69.01234567901234,0)" xlink:href="#E"/><use transform="matrix(0.06172839506172839,0,0,0.06172839506172839,80.12345679012346,0)" xlink:href="#F"/><use transform="matrix(0.06172839506172839,0,0,0.06172839506172839,92.46913580246914,0)" xlink:href="#P"/><use transform="matrix(0.06172839506172839,0,0,0.06172839506172839,110.92592592592592,0)" xlink:href="#F"/><use transform="matrix(0.06172839506172839,0,0,0.06172839506172839,123.27160493827161,0)" xlink:href="#Q"/><use transform="matrix(0.06172839506172839,0,0,0.06172839506172839,135.6172839506173,0)" xlink:href="#H"/></g><path fill="#333" d="M88-194c31-1 46 15 58 34l-1-101h50l1 261h-48c-2-10 0-23-3-31C134-8 116 4 84 4 32 4 16-41 15-95c0-56 19-97 73-99zm17 164c33 0 40-30 41-66 1-37-9-64-41-64s-38 30-39 65c0 43 13 65 39 65" id="R"/><g id="f"><use transform="matrix(0.04938271604938272,0,0,0.04938271604938272,0,0)" xlink:href="#K"/><use transform="matrix(0.034567901234567905,0,0,0.034567901234567905,10.814814814814815,2.488888888888889)" xlink:href="#R"/></g><g id="g"><use transform="matrix(0.06172839506172839,0,0,0.06172839506172839,0,0)" xlink:href="#G"/><use transform="matrix(0.06172839506172839,0,0,0.06172839506172839,14.814814814814813,0)" xlink:href="#F"/><use transform="matrix(0.06172839506172839,0,0,0.06172839506172839,27.160493827160494,0)" xlink:href="#D"/><use transform="matrix(0.06172839506172839,0,0,0.06172839506172839,39.50617283950617,0)" xlink:href="#A"/><use transform="matrix(0.06172839506172839,0,0,0.06172839506172839,46.85185185185185,0)" xlink:href="#B"/><use transform="matrix(0.06172839506172839,0,0,0.06172839506172839,57.96296296296296,0)" xlink:href="#C"/></g><path fill="#333" d="M76-54c-1 42 2 86-19 110H24C36 42 46 24 48 0H25v-54h51" id="S"/><g id="h"><use transform="matrix(0.04938271604938272,0,0,0.04938271604938272,0,0)" xlink:href="#K"/><use transform="matrix(0.034567901234567905,0,0,0.034567901234567905,10.814814814814815,2.488888888888889)" xlink:href="#L"/><use transform="matrix(0.034567901234567905,0,0,0.034567901234567905,17.728395061728396,2.488888888888889)" xlink:href="#S"/><use transform="matrix(0.034567901234567905,0,0,0.034567901234567905,21.185185185185187,2.488888888888889)" xlink:href="#R"/></g><path fill="#333" d="M133-34C117-15 103 5 69 4 32 3 11-16 11-54c-1-60 55-63 116-61 1-26-3-47-28-47-18 1-26 9-28 27l-52-2c7-38 36-58 82-57s74 22 75 68l1 82c-1 14 12 18 25 15v27c-30 8-71 5-69-32zm-48 3c29 0 43-24 42-57-32 0-66-3-65 30 0 17 8 27 23 27" id="T"/><g id="i"><use transform="matrix(0.04938271604938272,0,0,0.04938271604938272,0,0)" xlink:href="#K"/><use transform="matrix(0.034567901234567905,0,0,0.034567901234567905,10.814814814814815,2.488888888888889)" xlink:href="#L"/><use transform="matrix(0.034567901234567905,0,0,0.034567901234567905,17.728395061728396,2.488888888888889)" xlink:href="#S"/><use transform="matrix(0.034567901234567905,0,0,0.034567901234567905,21.185185185185187,2.488888888888889)" xlink:href="#T"/></g><g id="j"><use transform="matrix(0.04938271604938272,0,0,0.04938271604938272,0,0)" xlink:href="#K"/><use transform="matrix(0.034567901234567905,0,0,0.034567901234567905,10.814814814814815,2.488888888888889)" xlink:href="#L"/><use transform="matrix(0.034567901234567905,0,0,0.034567901234567905,17.728395061728396,2.488888888888889)" xlink:href="#S"/><use transform="matrix(0.034567901234567905,0,0,0.034567901234567905,21.185185185185187,2.488888888888889)" xlink:href="#L"/></g><g id="k"><use transform="matrix(0.04938271604938272,0,0,0.04938271604938272,0,0)" xlink:href="#K"/><use transform="matrix(0.034567901234567905,0,0,0.034567901234567905,10.814814814814815,2.488888888888889)" xlink:href="#R"/><use transform="matrix(0.034567901234567905,0,0,0.034567901234567905,18.385185185185183,2.488888888888889)" xlink:href="#S"/><use transform="matrix(0.034567901234567905,0,0,0.034567901234567905,21.841975308641977,2.488888888888889)" xlink:href="#R"/></g><g id="l"><use transform="matrix(0.04938271604938272,0,0,0.04938271604938272,0,0)" xlink:href="#K"/><use transform="matrix(0.034567901234567905,0,0,0.034567901234567905,10.814814814814815,2.488888888888889)" xlink:href="#R"/><use transform="matrix(0.034567901234567905,0,0,0.034567901234567905,18.385185185185183,2.488888888888889)" xlink:href="#S"/><use transform="matrix(0.034567901234567905,0,0,0.034567901234567905,21.841975308641977,2.488888888888889)" xlink:href="#T"/></g><g id="m"><use transform="matrix(0.04938271604938272,0,0,0.04938271604938272,0,0)" xlink:href="#K"/><use transform="matrix(0.034567901234567905,0,0,0.034567901234567905,10.814814814814815,2.488888888888889)" xlink:href="#T"/><use transform="matrix(0.034567901234567905,0,0,0.034567901234567905,17.728395061728396,2.488888888888889)" xlink:href="#S"/><use transform="matrix(0.034567901234567905,0,0,0.034567901234567905,21.185185185185187,2.488888888888889)" xlink:href="#T"/></g><g id="n"><use transform="matrix(0.04938271604938272,0,0,0.04938271604938272,0,0)" xlink:href="#K"/><use transform="matrix(0.034567901234567905,0,0,0.034567901234567905,10.814814814814815,2.488888888888889)" xlink:href="#R"/><use transform="matrix(0.034567901234567905,0,0,0.034567901234567905,18.385185185185183,2.488888888888889)" xlink:href="#S"/><use transform="matrix(0.034567901234567905,0,0,0.034567901234567905,21.841975308641977,2.488888888888889)" xlink:href="#L"/></g><g id="o"><use transform="matrix(0.04938271604938272,0,0,0.04938271604938272,0,0)" xlink:href="#K"/><use transform="matrix(0.034567901234567905,0,0,0.034567901234567905,10.814814814814815,2.488888888888889)" xlink:href="#T"/><use transform="matrix(0.034567901234567905,0,0,0.034567901234567905,17.728395061728396,2.488888888888889)" xlink:href="#S"/><use transform="matrix(0.034567901234567905,0,0,0.034567901234567905,21.185185185185187,2.488888888888889)" xlink:href="#R"/></g><g id="p"><use transform="matrix(0.04938271604938272,0,0,0.04938271604938272,0,0)" xlink:href="#K"/><use transform="matrix(0.034567901234567905,0,0,0.034567901234567905,10.814814814814815,2.488888888888889)" xlink:href="#T"/><use transform="matrix(0.034567901234567905,0,0,0.034567901234567905,17.728395061728396,2.488888888888889)" xlink:href="#S"/><use transform="matrix(0.034567901234567905,0,0,0.034567901234567905,21.185185185185187,2.488888888888889)" xlink:href="#L"/></g><g id="q"><use transform="matrix(0.04938271604938272,0,0,0.04938271604938272,0,0)" xlink:href="#K"/><use transform="matrix(0.034567901234567905,0,0,0.034567901234567905,10.814814814814815,2.488888888888889)" xlink:href="#L"/><use transform="matrix(0.034567901234567905,0,0,0.034567901234567905,17.728395061728396,2.488888888888889)" xlink:href="#S"/><use transform="matrix(0.034567901234567905,0,0,0.034567901234567905,21.185185185185187,2.488888888888889)" xlink:href="#K"/></g><g id="r"><use transform="matrix(0.04938271604938272,0,0,0.04938271604938272,0,0)" xlink:href="#K"/><use transform="matrix(0.034567901234567905,0,0,0.034567901234567905,10.814814814814815,2.488888888888889)" xlink:href="#R"/><use transform="matrix(0.034567901234567905,0,0,0.034567901234567905,18.385185185185183,2.488888888888889)" xlink:href="#S"/><use transform="matrix(0.034567901234567905,0,0,0.034567901234567905,21.841975308641977,2.488888888888889)" xlink:href="#K"/></g><g id="s"><use transform="matrix(0.04938271604938272,0,0,0.04938271604938272,0,0)" xlink:href="#K"/><use transform="matrix(0.034567901234567905,0,0,0.034567901234567905,10.814814814814815,2.488888888888889)" xlink:href="#T"/><use transform="matrix(0.034567901234567905,0,0,0.034567901234567905,17.728395061728396,2.488888888888889)" xlink:href="#S"/><use transform="matrix(0.034567901234567905,0,0,0.034567901234567905,21.185185185185187,2.488888888888889)" xlink:href="#K"/></g><path fill="#3a414a" d="M30 0v-248h187v28H63v79h144v27H63v87h162V0H30" id="U"/><path fill="#3a414a" d="M141 0L90-78 38 0H4l68-98-65-92h35l48 74 47-74h35l-64 92 68 98h-35" id="V"/><g id="t"><use transform="matrix(0.06172839506172839,0,0,0.06172839506172839,0,0)" xlink:href="#U"/><use transform="matrix(0.06172839506172839,0,0,0.06172839506172839,14.814814814814813,0)" xlink:href="#V"/><use transform="matrix(0.06172839506172839,0,0,0.06172839506172839,25.925925925925924,0)" xlink:href="#J"/><use transform="matrix(0.06172839506172839,0,0,0.06172839506172839,30.80246913580247,0)" xlink:href="#H"/></g><path fill="#333" d="M185-48c-13 30-37 53-82 52C43 2 14-33 14-96s30-98 90-98c62 0 83 45 84 108H66c0 31 8 55 39 56 18 0 30-7 34-22zm-45-69c5-46-57-63-70-21-2 6-4 13-4 21h74" id="W"/><g id="u"><use transform="matrix(0.04938271604938272,0,0,0.04938271604938272,0,0)" xlink:href="#K"/><use transform="matrix(0.034567901234567905,0,0,0.034567901234567905,10.814814814814815,2.488888888888889)" xlink:href="#R"/><use transform="matrix(0.034567901234567905,0,0,0.034567901234567905,18.385185185185183,2.488888888888889)" xlink:href="#S"/><use transform="matrix(0.034567901234567905,0,0,0.034567901234567905,21.841975308641977,2.488888888888889)" xlink:href="#W"/></g><g id="v"><use transform="matrix(0.04938271604938272,0,0,0.04938271604938272,0,0)" xlink:href="#K"/><use transform="matrix(0.034567901234567905,0,0,0.034567901234567905,10.814814814814815,2.488888888888889)" xlink:href="#L"/><use transform="matrix(0.034567901234567905,0,0,0.034567901234567905,17.728395061728396,2.488888888888889)" xlink:href="#S"/><use transform="matrix(0.034567901234567905,0,0,0.034567901234567905,21.185185185185187,2.488888888888889)" xlink:href="#W"/></g><g id="w"><use transform="matrix(0.04938271604938272,0,0,0.04938271604938272,0,0)" xlink:href="#K"/><use transform="matrix(0.034567901234567905,0,0,0.034567901234567905,10.814814814814815,2.488888888888889)" xlink:href="#T"/><use transform="matrix(0.034567901234567905,0,0,0.034567901234567905,17.728395061728396,2.488888888888889)" xlink:href="#S"/><use transform="matrix(0.034567901234567905,0,0,0.034567901234567905,21.185185185185187,2.488888888888889)" xlink:href="#W"/></g><g id="x"><use transform="matrix(0.04938271604938272,0,0,0.04938271604938272,0,0)" xlink:href="#K"/><use transform="matrix(0.034567901234567905,0,0,0.034567901234567905,10.814814814814815,2.488888888888889)" xlink:href="#T"/></g></defs></g></svg>
